<?xml version="1.0" encoding="utf-8"?>
<!-- Generator: Adobe Illustrator 16.0.0, SVG Export Plug-In . SVG Version: 6.00 Build 0)  -->
<!DOCTYPE svg PUBLIC "-//W3C//DTD SVG 1.1//EN" "http://www.w3.org/Graphics/SVG/1.1/DTD/svg11.dtd">
<svg version="1.1" id="图层_1" xmlns="http://www.w3.org/2000/svg" xmlns:xlink="http://www.w3.org/1999/xlink" x="0px" y="0px"
	 width="327.059px" height="119.744px" viewBox="135.26 246.355 327.059 119.744"
	 enable-background="new 135.26 246.355 327.059 119.744" xml:space="preserve">
<path fill="#003D7E" d="M195.132,366.099c-33.014,0-59.872-26.859-59.872-59.872c0-33.014,26.858-59.872,59.872-59.872
	c33.014,0,59.872,26.858,59.872,59.872C255.004,339.239,228.145,366.099,195.132,366.099L195.132,366.099z"/>
<path fill="#00A3CD" d="M195.132,253.319c-29.174,0-52.908,23.733-52.908,52.907c0,29.173,23.734,52.907,52.908,52.907
	c29.173,0,52.907-23.734,52.907-52.907S224.305,253.319,195.132,253.319L195.132,253.319z"/>
<path fill="#003D7E" d="M217.919,343.085h-16.156l-0.03-0.006c-3.114-0.075-5.048-1.453-6.604-3.007
	c-1.582,1.565-3.634,3.012-6.863,3.013h-15.988c-2.74,0-4.852-1.664-5.794-4.563l-4.638-14.272c-1.169-3.598-0.563-5.69,0.608-7.938
	c-2.479-1.257-4.074-2.735-5.154-6.057l-4.685-14.397c-0.967-2.542-0.114-5.416,2.094-7.021l11.805-8.576
	c1.922-1.396,3.732-2.555,6.426-2.555c0.612,0,1.255,0.058,1.987,0.179c0.537-3.503,2.097-5.263,4.568-7.06l11.887-8.637
	c1.063-0.844,2.392-1.308,3.754-1.308c1.28,0,2.506,0.399,3.544,1.152l12.351,8.981c2.953,2.146,3.881,4.125,4.304,6.858
	c0.719-0.118,1.364-0.176,1.969-0.176c2.703,0,4.524,1.165,6.461,2.572l11.584,8.421c2.251,1.493,3.238,4.314,2.398,6.893
	l-0.834,2.564l-0.007-0.002l-3.834,11.784l-0.017,0.045c-1.121,3.076-2.217,4.854-5.238,6.345c1.383,2.654,1.721,4.479,0.373,8.623
	l-4.434,13.646l-0.028,0.073C222.938,340.679,221.29,343.085,217.919,343.085L217.919,343.085z"/>
<path fill="#FFFFFF" d="M195.133,336.079c-2.014,2.172-3.47,4.292-6.867,4.293l-15.988-0.001c-1.744,0-2.715-1.153-3.214-2.688
	l-4.638-14.272c-0.976-2.999-0.415-4.343,0.84-6.596l0.965-1.729l-1.876-0.868c-2.355-1.09-3.56-1.989-4.475-4.803l-4.708-14.469
	c-0.55-1.377-0.122-3.003,1.133-3.915l11.804-8.575c2.572-1.87,3.851-2.399,6.882-1.803l2.274,0.447l0.286-2.387
	c0.346-2.877,1.338-4.095,3.539-5.693l11.941-8.677c1.14-0.933,2.806-1.021,4.054-0.115l12.35,8.98c2.454,1.783,3,3.17,3.308,5.738
	c0.087,0.718,0.173,1.435,0.259,2.153c0.836-0.165,1.694-0.356,2.535-0.509c2.822-0.514,4.122,0.047,6.632,1.872l11.638,8.459
	c1.239,0.797,1.838,2.354,1.36,3.821l-0.006-0.003l-4.654,14.304c-1.024,2.812-1.805,3.883-4.206,4.992
	c-0.755,0.35-1.51,0.699-2.264,1.048l0.937,1.68c1.456,2.611,1.852,3.602,0.638,7.34l-4.409,13.568
	c-0.619,1.583-1.512,2.699-3.283,2.698l-15.897,0.001c-0.006,0-0.013-0.003-0.019-0.003
	C198.589,340.369,197.182,338.287,195.133,336.079L195.133,336.079z"/>
<path fill="#00A3CD" d="M194.548,319.474l-0.822,1.131l0,0c-0.507,0.701-0.533,1.676,0.002,2.413
	c0.045,0.062,0.093,0.119,0.142,0.174l8.032,8.67l0,0c0.382,0.413,0.903,0.639,1.438,0.657l11.288,0.004l3.487-10.737l0,0
	c0.147-0.515,0.094-1.08-0.181-1.571l-2.18-3.903l4.114-1.904c0.888,1.594,1.777,3.188,2.665,4.781v0.001l0.006,0.008l0.083,0.15
	c0.424,0.809,0.484,1.735,0.214,2.566l0,0l-4.918,15.139L202,337.051v-0.001c-0.874,0-1.736-0.344-2.374-0.997l-0.117-0.126
	l-0.007-0.007l0,0c-3.59-3.871-7.18-7.738-10.771-11.611l0,0c-0.085-0.093-0.166-0.191-0.241-0.295
	c-0.866-1.191-0.824-2.765-0.006-3.896l0,0l3.265-4.492L194.548,319.474L194.548,319.474z M194.487,331.903l-3.083-3.323
	l-3.04,3.281c-0.381,0.413-0.903,0.64-1.438,0.658h0.001l-11.289,0.003l-3.487-10.736c-0.147-0.514-0.094-1.081,0.181-1.571l0,0
	l5.762-10.319c0.037-0.063,0.077-0.127,0.121-0.188c0.536-0.737,1.471-1.014,2.294-0.747l0,0l1.331,0.432l2.795-3.852l-5.281-1.715
	l0,0c-1.329-0.429-2.839,0.019-3.704,1.209c-0.075,0.104-0.144,0.211-0.205,0.321l0,0c-2.573,4.611-5.141,9.223-7.712,13.833
	l-0.005,0.009l-0.084,0.149c-0.425,0.809-0.484,1.736-0.214,2.567h-0.001l4.92,15.138l15.917-0.002v-0.001
	c0.874,0,1.737-0.344,2.376-0.997l0.115-0.126l0.008-0.007l0,0C192.005,334.58,193.246,333.241,194.487,331.903L194.487,331.903z
	 M193.213,308.327l-2.158-0.701l-2.796,3.851l2.157,0.701l6.124,8.427l0,0c0.507,0.701,0.534,1.676-0.003,2.413
	c-0.044,0.062-0.092,0.119-0.141,0.174l-0.62,0.669l3.084,3.33c0.892-0.961,1.782-1.922,2.674-2.883v-0.001
	c0.085-0.092,0.165-0.19,0.241-0.294c0.865-1.191,0.823-2.765,0.005-3.896l0,0L193.213,308.327L193.213,308.327z M172.206,309.22
	l-2.207,3.959c-1.656-0.767-3.313-1.533-4.971-2.3h0.001l-0.01-0.004l-0.155-0.072c-0.818-0.404-1.413-1.118-1.683-1.95l0,0
	l-4.926-15.136l12.875-9.359h0.001c0.706-0.515,1.606-0.744,2.506-0.591l0.169,0.033l0.011,0.002
	c5.18,1.02,10.357,2.036,15.539,3.056l0,0c0.123,0.025,0.246,0.058,0.369,0.097c1.4,0.455,2.291,1.752,2.295,3.148l0.002,5.551
	l-4.525-1.472l-0.002-1.393c-0.001-0.864-0.554-1.669-1.421-1.95c-0.071-0.022-0.145-0.042-0.217-0.057v-0.001l-11.595-2.287
	c-0.551-0.11-1.106,0.015-1.55,0.313l-9.132,6.637l3.495,10.734l0,0c0.183,0.503,0.56,0.93,1.07,1.164l0,0L172.206,309.22
	L172.206,309.22z M192.026,304.676l-8.563,11.793l0,0c-0.823,1.128-2.306,1.654-3.706,1.2c-0.123-0.039-0.241-0.086-0.355-0.138l0,0
	c-1.189-0.55-2.379-1.102-3.568-1.651l2.213-3.963l0.827,0.383l0,0c0.067,0.031,0.138,0.058,0.209,0.081
	c0.868,0.281,1.786-0.045,2.295-0.744l6.121-8.43l-0.001-2.274l4.527,1.471L192.026,304.676L192.026,304.676z M203.713,299.63
	l0.001-4.759l1.327-0.432h-0.001c0.822-0.269,1.416-1.042,1.416-1.954c0-0.075-0.004-0.15-0.012-0.223l0,0l-1.403-11.735
	c-0.065-0.559-0.355-1.048-0.776-1.378l-9.132-6.638l-9.132,6.638c-0.421,0.33-0.711,0.819-0.776,1.378l-0.532,4.447l-2.943-0.578
	l-1.505-0.296c0.219-1.815,0.437-3.631,0.654-5.446h0.001v-0.011l0.021-0.17c0.132-0.904,0.629-1.689,1.335-2.203l0,0l12.877-9.356
	l12.877,9.356l0,0c0.706,0.514,1.203,1.299,1.335,2.203l0.021,0.17l0.001,0.011c0.63,5.241,1.261,10.481,1.891,15.725l0,0
	c0.014,0.124,0.021,0.251,0.021,0.38c0,1.473-0.959,2.721-2.285,3.156L203.713,299.63L203.713,299.63z M195.133,302.418l2.162-0.702
	l0.002-4.761l-2.164,0.704l-9.907-3.22c-0.822-0.269-1.416-1.042-1.416-1.954c0-0.075,0.004-0.15,0.012-0.223l0.107-0.896
	l-4.452-0.879c-0.156,1.297-0.313,2.593-0.468,3.891c-0.014,0.124-0.021,0.251-0.021,0.38c0,1.473,0.958,2.721,2.285,3.156l0,0
	L195.133,302.418L195.133,302.418z M208.064,310.505l-4.526,1.47l3.264,4.494l0,0c0.823,1.128,2.307,1.654,3.706,1.2
	c0.122-0.039,0.241-0.086,0.355-0.138l0,0c4.793-2.218,9.582-4.437,14.373-6.652l0.01-0.004l0.155-0.072
	c0.818-0.404,1.412-1.118,1.683-1.95l0,0l4.926-15.136l-12.876-9.359c-0.706-0.515-1.606-0.744-2.506-0.591l-0.169,0.033
	l-0.01,0.002l0,0c-1.795,0.353-3.588,0.705-5.382,1.059l0.541,4.5l4.394-0.866c0.552-0.11,1.107,0.015,1.551,0.313l9.132,6.637
	l-3.495,10.734c-0.183,0.503-0.559,0.93-1.07,1.164l0,0l-10.728,4.957c-0.068,0.031-0.138,0.058-0.21,0.081
	c-0.867,0.281-1.785-0.045-2.295-0.744L208.064,310.505L208.064,310.505z M198.239,304.676l1.333,1.837l4.527-1.471l-1.333-1.835
	l0.003-10.418h0.001c0.001-0.864,0.553-1.669,1.421-1.95c0.071-0.022,0.145-0.042,0.216-0.057l0.885-0.176l-0.539-4.506
	c-1.281,0.253-2.563,0.505-3.844,0.757l0,0c-0.124,0.025-0.247,0.058-0.368,0.097c-1.4,0.455-2.293,1.752-2.297,3.148l0,0
	L198.239,304.676L198.239,304.676z M197.053,308.327l13.86-4.503v0.001c1.329-0.429,2.839,0.018,3.704,1.209
	c0.075,0.104,0.144,0.211,0.205,0.32l0,0c0.639,1.145,1.276,2.289,1.915,3.434l-4.12,1.902l-0.443-0.795h-0.001
	c-0.037-0.063-0.077-0.127-0.122-0.188c-0.535-0.737-1.471-1.014-2.293-0.748l0,0l-9.908,3.219l-1.334,1.835l-2.798-3.85
	L197.053,308.327L197.053,308.327z"/>
<path fill="#009944" d="M172.008,321.832L172.008,321.832L172.008,321.832z"/>
<path fill="#003D7E" d="M211.5,300.369c3.805-0.268,5.457,1.918,7.135,4.937l1.163-0.536c0.024-0.013,0.05-0.024,0.075-0.034
	c0.124-0.062,0.231-0.143,0.316-0.236c0.084-0.09,0.153-0.198,0.203-0.313l2.443-7.485l0,0v-0.001l-6.366-4.634
	c-0.108-0.065-0.227-0.111-0.348-0.136c-0.125-0.025-0.258-0.028-0.396-0.005c-0.026,0.006-0.054,0.012-0.081,0.016l-1.257,0.247
	C214.798,295.617,214.74,298.355,211.5,300.369L211.5,300.369L211.5,300.369L211.5,300.369z M205.244,319.602
	c1.435,3.535-0.13,5.783-2.479,8.315l0.871,0.938c0.02,0.02,0.038,0.04,0.056,0.061c0.097,0.1,0.207,0.176,0.322,0.229
	c0.112,0.053,0.235,0.084,0.361,0.096h7.874l0,0h0.001l2.431-7.49c0.027-0.123,0.034-0.249,0.021-0.373
	c-0.016-0.126-0.053-0.254-0.118-0.377c-0.014-0.023-0.027-0.047-0.04-0.072l-0.625-1.117
	C210.785,321.265,208.163,322.058,205.244,319.602L205.244,319.602L205.244,319.602L205.244,319.602z M185.007,319.602
	c-1.435,3.535,0.13,5.783,2.479,8.315l-0.871,0.938c-0.02,0.02-0.038,0.04-0.056,0.061c-0.097,0.1-0.206,0.176-0.322,0.229
	c-0.113,0.053-0.235,0.084-0.361,0.096h-7.874l0,0h-0.001l-2.431-7.49c-0.027-0.123-0.035-0.249-0.021-0.373
	c0.015-0.126,0.054-0.254,0.118-0.377c0.014-0.023,0.027-0.047,0.04-0.072l0.625-1.117
	C179.467,321.265,182.088,322.058,185.007,319.602L185.007,319.602L185.007,319.602L185.007,319.602z M178.79,300.369
	c-3.805-0.268-5.456,1.918-7.135,4.937l-1.163-0.536c-0.025-0.013-0.05-0.024-0.075-0.034c-0.124-0.063-0.231-0.143-0.317-0.236
	c-0.084-0.091-0.152-0.198-0.201-0.313l-2.444-7.485l0,0v-0.001l6.366-4.634c0.108-0.065,0.227-0.111,0.349-0.136
	c0.123-0.025,0.257-0.028,0.395-0.005c0.026,0.006,0.054,0.012,0.081,0.016l1.256,0.247
	C175.491,295.617,175.551,298.355,178.79,300.369L178.79,300.369L178.79,300.369L178.79,300.369z M195.133,288.525
	c0.917-3.702,3.505-4.601,6.895-5.268l-0.152-1.271c-0.005-0.027-0.008-0.055-0.01-0.082c-0.021-0.138-0.064-0.264-0.126-0.374
	c-0.062-0.108-0.142-0.206-0.236-0.29l-6.37-4.63l0,0l0,0l-6.37,4.63c-0.095,0.084-0.175,0.182-0.235,0.29
	c-0.063,0.11-0.106,0.236-0.127,0.374c-0.002,0.027-0.005,0.055-0.01,0.082l-0.152,1.271
	C191.628,283.925,194.215,284.823,195.133,288.525L195.133,288.525L195.133,288.525L195.133,288.525z"/>
<path fill="#FFFFFF" d="M195.132,253.319c-29.174,0-52.908,23.733-52.908,52.907c0,29.173,23.734,52.907,52.908,52.907
	c29.173,0,52.907-23.734,52.907-52.907S224.305,253.319,195.132,253.319L195.132,253.319z M195.132,362.18
	c-30.854,0-55.954-25.101-55.954-55.953s25.101-55.954,55.954-55.954s55.954,25.102,55.954,55.954S225.984,362.18,195.132,362.18
	L195.132,362.18z"/>
<path fill="#003D7E" d="M278.607,280.676c0.047,1.844,0.355,2.458,0.828,2.624c0.4,0.142,0.852,0.166,1.229,0.166
	c0.262,0,0.402,0.047,0.402,0.188c0,0.189-0.213,0.236-0.543,0.236c-1.537,0-2.482-0.07-2.932-0.07c-0.213,0-1.324,0.07-2.555,0.07
	c-0.307,0-0.52-0.023-0.52-0.236c0-0.142,0.141-0.188,0.379-0.188c0.307,0,0.732-0.024,1.064-0.118
	c0.613-0.189,0.709-0.875,0.732-2.933l0.213-13.995c0-0.473,0.07-0.804,0.307-0.804c0.26,0,0.473,0.308,0.875,0.732
	c0.283,0.309,3.877,4.161,7.328,7.589c1.607,1.607,4.799,5.013,5.201,5.391h0.119l-0.236-10.615
	c-0.023-1.442-0.238-1.892-0.805-2.128c-0.354-0.142-0.922-0.142-1.254-0.142c-0.283,0-0.377-0.071-0.377-0.213
	c0-0.189,0.26-0.212,0.615-0.212c1.229,0,2.363,0.07,2.859,0.07c0.26,0,1.16-0.07,2.318-0.07c0.307,0,0.543,0.022,0.543,0.212
	c0,0.142-0.144,0.213-0.427,0.213c-0.235,0-0.426,0-0.709,0.071c-0.661,0.188-0.852,0.686-0.875,2.01l-0.26,14.917
	c0,0.521-0.096,0.733-0.307,0.733c-0.262,0-0.545-0.261-0.805-0.521c-1.488-1.419-4.516-4.516-6.975-6.95
	c-2.576-2.554-5.201-5.508-5.627-5.958h-0.07L278.607,280.676L278.607,280.676z"/>
<path fill="#003D7E" d="M302.744,272.874c0-3.594,0-4.256-0.047-5.012c-0.047-0.804-0.236-1.182-1.017-1.348
	c-0.188-0.048-0.592-0.07-0.922-0.07c-0.26,0-0.401-0.048-0.401-0.214c0-0.165,0.166-0.212,0.52-0.212
	c0.64,0,1.324,0.023,1.916,0.023c0.613,0.023,1.158,0.047,1.488,0.047c0.756,0,5.461,0,5.91-0.023
	c0.448-0.047,0.828-0.095,1.018-0.142c0.117-0.024,0.26-0.095,0.377-0.095c0.119,0,0.144,0.095,0.144,0.213
	c0,0.165-0.117,0.449-0.189,1.536c-0.022,0.236-0.07,1.276-0.117,1.561c-0.022,0.118-0.071,0.26-0.235,0.26
	c-0.166,0-0.214-0.118-0.214-0.33c0-0.166-0.022-0.567-0.143-0.852c-0.166-0.425-0.402-0.71-1.584-0.852
	c-0.402-0.047-2.885-0.095-3.357-0.095c-0.116,0-0.163,0.071-0.163,0.236v5.982c0,0.165,0.022,0.26,0.163,0.26
	c0.521,0,3.24,0,3.783-0.048c0.566-0.047,0.922-0.118,1.135-0.354c0.166-0.189,0.261-0.308,0.38-0.308
	c0.094,0,0.164,0.048,0.164,0.189c0,0.141-0.095,0.521-0.188,1.726c-0.025,0.474-0.096,1.419-0.096,1.584
	c0,0.189,0,0.449-0.213,0.449c-0.164,0-0.214-0.095-0.214-0.213c-0.022-0.236-0.022-0.543-0.094-0.851
	c-0.119-0.473-0.449-0.827-1.324-0.923c-0.448-0.047-2.788-0.07-3.356-0.07c-0.117,0-0.141,0.095-0.141,0.236v1.868
	c0,0.804-0.025,2.979,0,3.664c0.047,1.632,0.424,1.986,2.836,1.986c0.614,0,1.606,0,2.223-0.284c0.615-0.283,0.897-0.78,1.063-1.749
	c0.048-0.261,0.095-0.355,0.261-0.355c0.188,0,0.188,0.189,0.188,0.427c0,0.543-0.188,2.15-0.307,2.623
	c-0.166,0.615-0.377,0.615-1.277,0.615c-1.771,0-3.072-0.048-4.09-0.071c-1.016-0.047-1.748-0.071-2.457-0.071
	c-0.26,0-0.781,0-1.348,0.024c-0.545,0-1.158,0.047-1.631,0.047c-0.31,0-0.476-0.071-0.476-0.236c0-0.118,0.096-0.188,0.379-0.188
	c0.355,0,0.64-0.048,0.853-0.095c0.473-0.095,0.59-0.615,0.686-1.301c0.117-0.993,0.117-2.86,0.117-5.035L302.744,272.874
	L302.744,272.874z"/>
<path fill="#003D7E" d="M321.113,281.644c-2.316-2.033-2.933-4.681-2.933-6.974c0-1.608,0.498-4.397,2.769-6.479
	c1.701-1.56,3.947-2.505,7.469-2.505c1.467,0,2.342,0.095,3.43,0.236c0.898,0.117,1.654,0.331,2.363,0.402
	c0.26,0.022,0.355,0.141,0.355,0.282c0,0.189-0.072,0.473-0.119,1.301c-0.047,0.78-0.023,2.081-0.07,2.554
	c-0.022,0.354-0.069,0.544-0.283,0.544c-0.188,0-0.235-0.189-0.235-0.521c-0.025-0.732-0.332-1.561-0.924-2.175
	c-0.779-0.828-2.623-1.467-4.8-1.467c-2.057,0-3.403,0.521-4.442,1.467c-1.728,1.583-2.176,3.83-2.176,6.123
	c0,5.626,4.278,8.416,7.446,8.416c2.104,0,3.381-0.236,4.326-1.324c0.402-0.449,0.709-1.135,0.805-1.56
	c0.07-0.379,0.117-0.473,0.308-0.473c0.166,0,0.213,0.165,0.213,0.354c0,0.283-0.283,2.34-0.521,3.144
	c-0.118,0.402-0.213,0.521-0.614,0.687c-0.945,0.379-2.742,0.544-4.256,0.544C325.984,284.222,323.267,283.513,321.113,281.644
	L321.113,281.644z"/>
<path fill="#003D7E" d="M343.619,266.112c0.072-0.401,0.213-0.614,0.402-0.614c0.188,0,0.332,0.118,0.639,0.732l6.453,13.334
	l6.432-13.499c0.189-0.379,0.308-0.567,0.521-0.567s0.354,0.236,0.426,0.732l2.152,14.611c0.213,1.489,0.448,2.174,1.157,2.387
	c0.687,0.213,1.158,0.237,1.466,0.237c0.213,0,0.379,0.022,0.379,0.165c0,0.188-0.283,0.26-0.615,0.26
	c-0.592,0-3.854-0.071-4.799-0.142c-0.543-0.047-0.687-0.118-0.687-0.261c0-0.117,0.094-0.188,0.26-0.26
	c0.144-0.048,0.214-0.354,0.119-1.017l-1.418-10.401h-0.096l-5.154,10.732c-0.543,1.111-0.66,1.324-0.875,1.324
	c-0.213,0-0.449-0.473-0.826-1.182c-0.567-1.089-2.436-4.705-2.721-5.367c-0.211-0.496-1.631-3.475-2.457-5.248h-0.096l-1.229,9.409
	c-0.047,0.426-0.071,0.732-0.071,1.111c0,0.449,0.309,0.661,0.711,0.756c0.426,0.095,0.756,0.119,0.991,0.119
	c0.189,0,0.355,0.047,0.355,0.165c0,0.213-0.213,0.26-0.568,0.26c-0.991,0-2.057-0.071-2.481-0.071c-0.449,0-1.584,0.071-2.34,0.071
	c-0.236,0-0.427-0.047-0.427-0.26c0-0.118,0.144-0.165,0.38-0.165c0.188,0,0.354,0,0.709-0.071c0.661-0.143,0.85-1.063,0.969-1.868
	L343.619,266.112L343.619,266.112z"/>
<path fill="#003D7E" d="M370.477,272.874c0-3.594,0-4.256-0.048-5.012c-0.049-0.804-0.235-1.182-1.018-1.348
	c-0.189-0.048-0.59-0.07-0.922-0.07c-0.26,0-0.402-0.048-0.402-0.214c0-0.165,0.166-0.212,0.521-0.212
	c0.639,0,1.323,0.023,1.914,0.023c0.614,0.023,1.157,0.047,1.489,0.047c0.757,0,5.461,0,5.91-0.023
	c0.449-0.047,0.826-0.095,1.017-0.142c0.118-0.024,0.26-0.095,0.379-0.095c0.117,0,0.143,0.095,0.143,0.213
	c0,0.165-0.119,0.449-0.188,1.536c-0.023,0.236-0.072,1.276-0.119,1.561c-0.023,0.118-0.07,0.26-0.236,0.26s-0.213-0.118-0.213-0.33
	c0-0.166-0.023-0.567-0.143-0.852c-0.164-0.425-0.4-0.71-1.585-0.852c-0.399-0.047-2.883-0.095-3.354-0.095
	c-0.119,0-0.166,0.071-0.166,0.236v5.982c0,0.165,0.023,0.26,0.166,0.26c0.52,0,3.238,0,3.781-0.048
	c0.567-0.047,0.922-0.118,1.137-0.354c0.164-0.189,0.258-0.308,0.377-0.308c0.096,0,0.166,0.048,0.166,0.189
	c0,0.141-0.096,0.521-0.188,1.726c-0.023,0.474-0.097,1.419-0.097,1.584c0,0.189,0,0.449-0.211,0.449
	c-0.166,0-0.213-0.095-0.213-0.213c-0.023-0.236-0.023-0.543-0.096-0.851c-0.117-0.473-0.449-0.827-1.324-0.923
	c-0.449-0.047-2.789-0.07-3.355-0.07c-0.118,0-0.143,0.095-0.143,0.236v1.868c0,0.804-0.023,2.979,0,3.664
	c0.047,1.632,0.426,1.986,2.838,1.986c0.613,0,1.607,0,2.221-0.284c0.615-0.283,0.898-0.78,1.064-1.749
	c0.047-0.261,0.094-0.355,0.26-0.355c0.189,0,0.189,0.189,0.189,0.427c0,0.543-0.189,2.15-0.308,2.623
	c-0.166,0.615-0.379,0.615-1.276,0.615c-1.773,0-3.072-0.048-4.091-0.071c-1.016-0.047-1.75-0.071-2.459-0.071
	c-0.26,0-0.778,0-1.348,0.024c-0.543,0-1.158,0.047-1.631,0.047c-0.307,0-0.473-0.071-0.473-0.236c0-0.118,0.096-0.188,0.379-0.188
	c0.354,0,0.637-0.048,0.85-0.095c0.473-0.095,0.592-0.615,0.687-1.301c0.118-0.993,0.118-2.86,0.118-5.035L370.477,272.874
	L370.477,272.874z"/>
<path fill="#003D7E" d="M391.635,267.342l-3.521,0.095c-1.373,0.047-1.939,0.166-2.295,0.686c-0.236,0.354-0.354,0.639-0.4,0.827
	c-0.049,0.189-0.119,0.284-0.262,0.284c-0.164,0-0.211-0.118-0.211-0.379c0-0.378,0.447-2.528,0.496-2.719
	c0.069-0.307,0.141-0.448,0.283-0.448c0.188,0,0.426,0.236,1.016,0.283c0.688,0.07,1.584,0.118,2.365,0.118h9.36
	c0.759,0,1.277-0.07,1.631-0.118c0.355-0.071,0.546-0.118,0.64-0.118c0.166,0,0.188,0.142,0.188,0.496
	c0,0.496-0.069,2.128-0.069,2.742c-0.023,0.237-0.072,0.379-0.213,0.379c-0.189,0-0.236-0.118-0.261-0.473l-0.022-0.26
	c-0.049-0.615-0.688-1.277-2.791-1.324l-2.979-0.071v9.693c0,2.174,0,4.043,0.119,5.06c0.07,0.661,0.213,1.182,0.922,1.275
	c0.33,0.048,0.851,0.096,1.205,0.096c0.26,0,0.379,0.07,0.379,0.188c0,0.166-0.188,0.236-0.449,0.236
	c-1.561,0-3.051-0.07-3.713-0.07c-0.543,0-2.032,0.07-2.979,0.07c-0.308,0-0.474-0.07-0.474-0.236c0-0.118,0.097-0.188,0.38-0.188
	c0.354,0,0.639-0.048,0.852-0.096c0.473-0.094,0.613-0.614,0.686-1.3c0.117-0.992,0.117-2.861,0.117-5.035V267.342L391.635,267.342z
	"/>
<path fill="#003D7E" d="M411.492,267.342l-3.521,0.095c-1.37,0.047-1.938,0.166-2.293,0.686c-0.235,0.354-0.354,0.639-0.401,0.827
	c-0.047,0.189-0.119,0.284-0.26,0.284c-0.166,0-0.214-0.118-0.214-0.379c0-0.378,0.449-2.528,0.496-2.719
	c0.072-0.307,0.144-0.448,0.283-0.448c0.189,0,0.426,0.236,1.019,0.283c0.686,0.07,1.584,0.118,2.362,0.118h9.361
	c0.758,0,1.277-0.07,1.633-0.118c0.355-0.071,0.543-0.118,0.639-0.118c0.166,0,0.189,0.142,0.189,0.496
	c0,0.496-0.072,2.128-0.072,2.742c-0.022,0.237-0.069,0.379-0.213,0.379c-0.188,0-0.236-0.118-0.26-0.473l-0.023-0.26
	c-0.047-0.615-0.686-1.277-2.789-1.324l-2.979-0.071v9.693c0,2.174,0,4.043,0.117,5.06c0.071,0.661,0.213,1.182,0.922,1.275
	c0.332,0.048,0.852,0.096,1.205,0.096c0.262,0,0.379,0.07,0.379,0.188c0,0.166-0.189,0.236-0.449,0.236
	c-1.561,0-3.049-0.07-3.711-0.07c-0.545,0-2.033,0.07-2.979,0.07c-0.309,0-0.473-0.07-0.473-0.236c0-0.118,0.094-0.188,0.377-0.188
	c0.355,0,0.639-0.048,0.853-0.096c0.473-0.094,0.614-0.614,0.686-1.3c0.117-0.992,0.117-2.861,0.117-5.035V267.342L411.492,267.342z
	"/>
<path fill="#003D7E" d="M428.207,272.874c0-3.594,0-4.256-0.047-5.012c-0.047-0.804-0.283-1.206-0.805-1.324
	c-0.261-0.071-0.566-0.094-0.853-0.094c-0.235,0-0.377-0.048-0.377-0.237c0-0.142,0.189-0.188,0.566-0.188
	c0.899,0,2.389,0.07,3.074,0.07c0.592,0,1.985-0.07,2.885-0.07c0.307,0,0.496,0.047,0.496,0.188c0,0.189-0.144,0.237-0.379,0.237
	c-0.236,0-0.427,0.022-0.709,0.07c-0.64,0.118-0.826,0.52-0.875,1.348c-0.048,0.756-0.048,1.418-0.048,5.012v4.161
	c0,2.293,0,4.161,0.097,5.177c0.069,0.639,0.235,1.064,0.944,1.159c0.33,0.047,0.853,0.095,1.205,0.095
	c0.261,0,0.377,0.07,0.377,0.188c0,0.165-0.188,0.236-0.446,0.236c-1.562,0-3.052-0.071-3.689-0.071
	c-0.543,0-2.031,0.071-2.979,0.071c-0.308,0-0.474-0.071-0.474-0.236c0-0.118,0.095-0.188,0.379-0.188
	c0.354,0,0.64-0.048,0.853-0.095c0.473-0.095,0.613-0.497,0.686-1.183c0.117-0.992,0.117-2.86,0.117-5.153L428.207,272.874
	L428.207,272.874z"/>
<path fill="#003D7E" d="M443.289,280.676c0.049,1.844,0.355,2.458,0.828,2.624c0.402,0.142,0.852,0.166,1.229,0.166
	c0.261,0,0.4,0.047,0.4,0.188c0,0.189-0.213,0.236-0.543,0.236c-1.537,0-2.482-0.07-2.932-0.07c-0.213,0-1.324,0.07-2.554,0.07
	c-0.309,0-0.521-0.023-0.521-0.236c0-0.142,0.143-0.188,0.379-0.188c0.307,0,0.732-0.024,1.064-0.118
	c0.614-0.189,0.709-0.875,0.731-2.933l0.213-13.995c0-0.473,0.07-0.804,0.308-0.804c0.26,0,0.473,0.308,0.875,0.732
	c0.282,0.309,3.877,4.161,7.329,7.589c1.607,1.607,4.8,5.013,5.201,5.391h0.117l-0.236-10.615c-0.022-1.442-0.235-1.892-0.803-2.128
	c-0.354-0.142-0.922-0.142-1.254-0.142c-0.283,0-0.379-0.071-0.379-0.213c0-0.189,0.26-0.212,0.615-0.212
	c1.229,0,2.362,0.07,2.86,0.07c0.261,0,1.158-0.07,2.316-0.07c0.307,0,0.543,0.022,0.543,0.212c0,0.142-0.141,0.213-0.426,0.213
	c-0.236,0-0.426,0-0.709,0.071c-0.662,0.188-0.851,0.686-0.875,2.01l-0.26,14.917c0,0.521-0.095,0.733-0.308,0.733
	c-0.26,0-0.545-0.261-0.805-0.521c-1.488-1.419-4.515-4.516-6.976-6.95c-2.575-2.554-5.198-5.508-5.625-5.958h-0.071
	L443.289,280.676L443.289,280.676z"/>
<path fill="#003D7E" d="M277.283,303.082c0-3.593,0-4.256-0.047-5.012c-0.047-0.804-0.236-1.182-1.016-1.348
	c-0.189-0.048-0.592-0.07-0.922-0.07c-0.262,0-0.402-0.049-0.402-0.214c0-0.166,0.166-0.212,0.52-0.212
	c0.639,0,1.324,0.023,1.916,0.023c0.613,0.022,1.158,0.047,1.488,0.047c0.756,0,5.461,0,5.91-0.024
	c0.449-0.046,0.828-0.094,1.018-0.141c0.117-0.024,0.26-0.096,0.377-0.096c0.119,0,0.143,0.096,0.143,0.214
	c0,0.165-0.119,0.449-0.189,1.536c-0.023,0.236-0.07,1.276-0.119,1.561c-0.021,0.118-0.07,0.26-0.236,0.26
	c-0.164,0-0.211-0.117-0.211-0.33c0-0.166-0.025-0.568-0.143-0.852c-0.166-0.426-0.402-0.71-1.584-0.851
	c-0.402-0.048-2.885-0.096-3.357-0.096c-0.117,0-0.166,0.071-0.166,0.236v5.981c0,0.166,0.023,0.261,0.166,0.261
	c0.52,0,3.238,0,3.783-0.048c0.566-0.047,0.922-0.118,1.135-0.354c0.166-0.188,0.26-0.307,0.377-0.307
	c0.096,0,0.166,0.047,0.166,0.188c0,0.143-0.094,0.521-0.188,1.727c-0.025,0.473-0.096,1.418-0.096,1.583c0,0.189,0,0.45-0.213,0.45
	c-0.164,0-0.213-0.096-0.213-0.214c-0.023-0.236-0.023-0.544-0.094-0.851c-0.119-0.473-0.449-0.827-1.324-0.922
	c-0.449-0.047-2.789-0.071-3.357-0.071c-0.119,0-0.143,0.095-0.143,0.237v1.867c0,0.804-0.023,2.979,0,3.664
	c0.049,1.632,0.426,1.985,2.838,1.985c0.615,0,1.607,0,2.223-0.283c0.616-0.283,0.898-0.78,1.064-1.749
	c0.045-0.26,0.094-0.354,0.26-0.354c0.188,0,0.188,0.188,0.188,0.425c0,0.544-0.188,2.151-0.307,2.624
	c-0.166,0.615-0.379,0.615-1.277,0.615c-1.771,0-3.072-0.048-4.09-0.071c-1.016-0.047-1.75-0.07-2.459-0.07
	c-0.26,0-0.779,0-1.346,0.023c-0.545,0-1.16,0.047-1.633,0.047c-0.307,0-0.473-0.07-0.473-0.236c0-0.118,0.096-0.188,0.379-0.188
	c0.355,0,0.639-0.048,0.852-0.095c0.473-0.095,0.59-0.615,0.686-1.301c0.117-0.992,0.117-2.86,0.117-5.035L277.283,303.082
	L277.283,303.082z"/>
<path fill="#003D7E" d="M298.088,304.949c0,0.261,0.047,0.355,0.213,0.427c0.496,0.165,1.205,0.236,1.797,0.236
	c0.945,0,1.253-0.096,1.679-0.402c0.709-0.521,1.395-1.607,1.395-3.546c0-3.357-2.223-4.327-3.617-4.327
	c-0.59,0-1.016,0.023-1.252,0.095c-0.166,0.048-0.213,0.143-0.213,0.331L298.088,304.949L298.088,304.949z M295.299,303.082
	c0-3.594,0-4.255-0.049-5.013c-0.047-0.803-0.236-1.182-1.016-1.347c-0.189-0.048-0.593-0.071-0.922-0.071
	c-0.261,0-0.402-0.047-0.402-0.213c0-0.165,0.166-0.212,0.52-0.212c1.255,0,2.744,0.07,3.24,0.07c0.803,0,2.601-0.07,3.332-0.07
	c1.49,0,3.074,0.141,4.353,1.017c0.659,0.448,1.604,1.654,1.604,3.238c0,1.75-0.729,3.357-3.119,5.296
	c2.104,2.647,3.734,4.751,5.129,6.218c1.324,1.371,2.295,1.537,2.648,1.607c0.262,0.047,0.473,0.071,0.662,0.071
	c0.188,0,0.283,0.07,0.283,0.188c0,0.189-0.164,0.236-0.447,0.236h-2.246c-1.324,0-1.916-0.118-2.531-0.449
	c-1.016-0.543-1.914-1.654-3.238-3.475c-0.944-1.301-2.032-2.908-2.34-3.263c-0.119-0.142-0.26-0.166-0.426-0.166l-2.057-0.047
	c-0.119,0-0.189,0.047-0.189,0.189v0.331c0,2.198,0,4.066,0.117,5.059c0.072,0.686,0.213,1.206,0.922,1.301
	c0.355,0.047,0.875,0.095,1.158,0.095c0.188,0,0.285,0.07,0.285,0.188c0,0.166-0.166,0.236-0.474,0.236
	c-1.371,0-3.121-0.07-3.477-0.07c-0.447,0-1.938,0.07-2.883,0.07c-0.31,0-0.474-0.07-0.474-0.236c0-0.118,0.095-0.188,0.378-0.188
	c0.354,0,0.639-0.048,0.852-0.095c0.473-0.095,0.592-0.615,0.686-1.301c0.119-0.992,0.119-2.86,0.119-5.035L295.299,303.082
	L295.299,303.082z"/>
<path fill="#003D7E" d="M322.178,305.376c-0.495-0.355-1.041-0.521-1.961-0.568c-0.426-0.023-0.662-0.023-1.018-0.023
	c-0.094,0-0.144,0.048-0.144,0.165v5.604c0,1.561,0.072,1.962,0.828,2.27c0.64,0.26,1.183,0.284,1.728,0.284
	c1.063,0,2.858-0.568,2.858-3.026C324.471,308.613,323.974,306.628,322.178,305.376L322.178,305.376z M319.058,303.484
	c0,0.188,0.071,0.236,0.165,0.26c0.214,0.047,0.568,0.071,1.111,0.071c0.779,0,1.301-0.095,1.703-0.449
	c0.613-0.497,0.969-1.348,0.969-2.507c0-1.583-0.922-3.664-2.955-3.664c-0.332,0-0.545,0-0.78,0.047
	c-0.164,0.048-0.214,0.143-0.214,0.402L319.058,303.484L319.058,303.484z M316.221,303.082c0-3.593,0-4.256-0.047-5.013
	c-0.047-0.803-0.235-1.182-1.018-1.347c-0.189-0.048-0.592-0.071-0.922-0.071c-0.261,0-0.402-0.048-0.402-0.213
	s0.166-0.212,0.521-0.212c1.254,0,2.743,0.07,3.217,0.07c1.158,0,2.08-0.07,2.885-0.07c4.277,0,5.035,2.292,5.035,3.545
	c0,1.939-1.111,3.098-2.412,4.138c1.939,0.662,4.303,2.341,4.303,5.106c0,2.53-1.963,5.154-6.313,5.154
	c-0.283,0-0.969-0.048-1.654-0.071c-0.709-0.047-1.418-0.07-1.772-0.07c-0.261,0-0.779,0-1.349,0.023
	c-0.543,0-1.158,0.047-1.631,0.047c-0.309,0-0.473-0.07-0.473-0.236c0-0.118,0.094-0.188,0.377-0.188
	c0.354,0,0.639-0.048,0.852-0.095c0.476-0.096,0.592-0.615,0.687-1.301c0.118-0.992,0.118-2.86,0.118-5.035L316.221,303.082
	L316.221,303.082z"/>
<path fill="#003D7E" d="M341.895,306.746c0.116,0,0.141-0.071,0.116-0.142l-2.127-5.84c-0.022-0.094-0.047-0.212-0.119-0.212
	c-0.069,0-0.116,0.118-0.141,0.212l-2.176,5.816c-0.023,0.094,0,0.165,0.096,0.165L341.895,306.746L341.895,306.746z
	 M337.07,307.929c-0.117,0-0.164,0.047-0.213,0.189l-1.275,3.38c-0.236,0.592-0.354,1.158-0.354,1.442
	c0,0.426,0.213,0.733,0.944,0.733h0.355c0.283,0,0.354,0.047,0.354,0.188c0,0.189-0.143,0.236-0.401,0.236
	c-0.759,0-1.773-0.07-2.507-0.07c-0.26,0-1.561,0.07-2.79,0.07c-0.308,0-0.449-0.047-0.449-0.236c0-0.142,0.096-0.188,0.285-0.188
	c0.213,0,0.543-0.024,0.731-0.048c1.088-0.142,1.537-0.945,2.01-2.128l5.935-14.847c0.283-0.686,0.426-0.945,0.662-0.945
	c0.213,0,0.354,0.213,0.592,0.757c0.565,1.3,4.35,10.945,5.861,14.538c0.897,2.128,1.586,2.459,2.082,2.578
	c0.354,0.07,0.709,0.095,0.991,0.095c0.189,0,0.308,0.022,0.308,0.188c0,0.189-0.211,0.236-1.086,0.236c-0.853,0-2.578,0-4.47-0.047
	c-0.426-0.023-0.709-0.023-0.709-0.189c0-0.142,0.095-0.188,0.33-0.213c0.166-0.047,0.332-0.26,0.213-0.543l-1.891-5.013
	c-0.047-0.118-0.119-0.165-0.236-0.165h-5.272V307.929z"/>
<path fill="#003D7E" d="M358.633,304.122h0.117c0.805-0.874,4.256-4.396,4.941-5.201c0.662-0.779,1.182-1.371,1.182-1.773
	c0-0.259-0.094-0.425-0.33-0.473c-0.213-0.047-0.309-0.094-0.309-0.236c0-0.166,0.119-0.212,0.379-0.212
	c0.496,0,1.797,0.07,2.436,0.07c0.732,0,2.033-0.07,2.767-0.07c0.235,0,0.401,0.046,0.401,0.212c0,0.165-0.118,0.214-0.354,0.214
	c-0.332,0-0.922,0.093-1.371,0.259c-0.732,0.285-1.537,0.78-2.553,1.773c-0.734,0.709-4.304,4.256-5.107,5.106
	c0.853,1.111,5.484,6.1,6.406,6.974c1.041,0.994,2.104,2.058,3.381,2.554c0.711,0.284,1.184,0.355,1.467,0.355
	c0.166,0,0.308,0.047,0.308,0.188c0,0.166-0.117,0.236-0.566,0.236h-2.059c-0.709,0-1.134,0-1.632-0.047
	c-1.274-0.119-1.914-0.638-2.932-1.537c-1.039-0.922-5.697-6.383-6.193-7.068l-0.26-0.354h-0.117v2.152c0,2.175,0,4.043,0.07,5.06
	c0.047,0.661,0.26,1.182,0.852,1.276c0.33,0.047,0.851,0.095,1.158,0.095c0.189,0,0.308,0.071,0.308,0.188
	c0,0.166-0.189,0.236-0.449,0.236c-1.324,0-2.813-0.07-3.404-0.07c-0.543,0-2.033,0.07-2.979,0.07c-0.308,0-0.474-0.07-0.474-0.236
	c0-0.117,0.095-0.188,0.379-0.188c0.354,0,0.638-0.048,0.851-0.095c0.473-0.095,0.592-0.615,0.686-1.301
	c0.119-0.992,0.119-2.86,0.119-5.035v-4.161c0-3.593,0-4.256-0.047-5.012c-0.049-0.804-0.236-1.182-1.018-1.348
	c-0.189-0.048-0.591-0.07-0.923-0.07c-0.26,0-0.401-0.049-0.401-0.214c0-0.166,0.166-0.212,0.521-0.212
	c1.252,0,2.742,0.07,3.31,0.07s2.057-0.07,2.86-0.07c0.33,0,0.496,0.046,0.496,0.212c0,0.165-0.143,0.214-0.332,0.214
	c-0.235,0-0.377,0.022-0.66,0.07c-0.639,0.117-0.827,0.52-0.875,1.348c-0.047,0.756-0.047,1.419-0.047,5.012L358.633,304.122
	L358.633,304.122z"/>
<path fill="#003D7E" d="M384.873,306.746c0.119,0,0.144-0.071,0.119-0.142l-2.129-5.84c-0.023-0.094-0.047-0.212-0.117-0.212
	c-0.072,0-0.119,0.118-0.143,0.212l-2.175,5.816c-0.024,0.094,0,0.165,0.095,0.165L384.873,306.746L384.873,306.746z
	 M380.051,307.929c-0.118,0-0.166,0.047-0.213,0.189l-1.276,3.38c-0.236,0.592-0.354,1.158-0.354,1.442
	c0,0.426,0.213,0.733,0.945,0.733h0.354c0.285,0,0.355,0.047,0.355,0.188c0,0.189-0.144,0.236-0.402,0.236
	c-0.756,0-1.772-0.07-2.506-0.07c-0.26,0-1.562,0.07-2.789,0.07c-0.309,0-0.449-0.047-0.449-0.236c0-0.142,0.095-0.188,0.283-0.188
	c0.213,0,0.543-0.024,0.732-0.048c1.088-0.142,1.536-0.945,2.01-2.128l5.934-14.847c0.285-0.686,0.426-0.945,0.662-0.945
	c0.213,0,0.355,0.213,0.592,0.757c0.566,1.3,4.351,10.945,5.863,14.538c0.898,2.128,1.584,2.459,2.08,2.578
	c0.354,0.07,0.709,0.095,0.992,0.095c0.188,0,0.309,0.022,0.309,0.188c0,0.189-0.213,0.236-1.088,0.236
	c-0.852,0-2.578,0-4.469-0.047c-0.426-0.023-0.709-0.023-0.709-0.189c0-0.142,0.094-0.188,0.33-0.213
	c0.166-0.047,0.332-0.26,0.215-0.543l-1.894-5.013c-0.047-0.118-0.116-0.165-0.235-0.165h-5.271V307.929z"/>
<path fill="#003D7E" d="M400.381,310.884c0.049,1.844,0.355,2.459,0.828,2.624c0.402,0.142,0.853,0.166,1.229,0.166
	c0.262,0,0.401,0.046,0.401,0.188c0,0.189-0.213,0.236-0.543,0.236c-1.537,0-2.481-0.07-2.932-0.07c-0.213,0-1.324,0.07-2.555,0.07
	c-0.308,0-0.521-0.023-0.521-0.236c0-0.143,0.144-0.188,0.379-0.188c0.308,0,0.732-0.024,1.064-0.119
	c0.612-0.188,0.709-0.874,0.731-2.932l0.213-13.995c0-0.473,0.07-0.804,0.308-0.804c0.26,0,0.475,0.308,0.875,0.732
	c0.283,0.308,3.877,4.161,7.33,7.589c1.606,1.608,4.799,5.013,5.201,5.391h0.116l-0.235-10.615
	c-0.023-1.442-0.236-1.892-0.806-2.128c-0.354-0.142-0.922-0.142-1.252-0.142c-0.285,0-0.379-0.07-0.379-0.213
	c0-0.189,0.26-0.212,0.615-0.212c1.229,0,2.363,0.07,2.861,0.07c0.26,0,1.157-0.07,2.315-0.07c0.308,0,0.543,0.022,0.543,0.212
	c0,0.143-0.141,0.213-0.426,0.213c-0.236,0-0.424,0-0.709,0.071c-0.662,0.189-0.852,0.686-0.875,2.009l-0.26,14.918
	c0,0.521-0.095,0.733-0.308,0.733c-0.26,0-0.545-0.261-0.805-0.521c-1.488-1.418-4.516-4.516-6.975-6.95
	c-2.576-2.554-5.201-5.509-5.625-5.958h-0.072L400.381,310.884L400.381,310.884z"/>
<path fill="#003D7E" d="M276.267,333.29c0-3.594,0-4.256-0.047-5.012c-0.049-0.804-0.236-1.182-1.018-1.348
	c-0.189-0.048-0.592-0.071-0.922-0.071c-0.26,0-0.402-0.047-0.402-0.213c0-0.165,0.166-0.212,0.521-0.212
	c1.252,0,2.742,0.07,3.451,0.07c0.566,0,2.057-0.07,2.906-0.07c0.355,0,0.521,0.047,0.521,0.212c0,0.166-0.143,0.213-0.379,0.213
	c-0.26,0-0.4,0.023-0.686,0.071c-0.639,0.118-0.826,0.52-0.875,1.348c-0.047,0.756-0.047,1.418-0.047,5.012v3.31
	c0,3.429,0.686,4.871,1.844,5.816c1.064,0.874,2.152,0.97,2.957,0.97c1.039,0,2.316-0.332,3.262-1.277
	c1.299-1.301,1.371-3.428,1.371-5.863v-2.955c0-3.594,0-4.256-0.047-5.012c-0.049-0.804-0.238-1.182-1.018-1.348
	c-0.189-0.048-0.592-0.071-0.852-0.071c-0.26,0-0.4-0.047-0.4-0.213c0-0.165,0.164-0.212,0.496-0.212c1.205,0,2.695,0.07,2.719,0.07
	c0.283,0,1.773-0.07,2.695-0.07c0.33,0,0.496,0.047,0.496,0.212c0,0.166-0.144,0.213-0.427,0.213c-0.26,0-0.401,0.023-0.686,0.071
	c-0.639,0.118-0.828,0.52-0.875,1.348c-0.047,0.756-0.047,1.418-0.047,5.012v2.529c0,2.624-0.26,5.415-2.246,7.116
	c-1.68,1.442-3.381,1.702-4.918,1.702c-1.252,0-3.521-0.071-5.248-1.631c-1.205-1.088-2.104-2.838-2.104-6.265v-3.452H276.267z"/>
<path fill="#003D7E" d="M301.822,341.092c0.047,1.844,0.354,2.458,0.828,2.624c0.401,0.142,0.852,0.165,1.229,0.165
	c0.263,0,0.402,0.048,0.402,0.189c0,0.188-0.213,0.236-0.543,0.236c-1.537,0-2.482-0.07-2.933-0.07c-0.213,0-1.323,0.07-2.553,0.07
	c-0.309,0-0.521-0.023-0.521-0.236c0-0.142,0.143-0.189,0.379-0.189c0.307,0,0.731-0.023,1.063-0.117
	c0.613-0.189,0.709-0.875,0.732-2.933l0.213-13.995c0-0.473,0.07-0.804,0.307-0.804c0.261,0,0.474,0.308,0.875,0.732
	c0.283,0.309,3.877,4.161,7.328,7.589c1.607,1.607,4.801,5.013,5.201,5.391h0.119l-0.236-10.615
	c-0.022-1.442-0.235-1.892-0.805-2.128c-0.354-0.142-0.922-0.142-1.252-0.142c-0.283,0-0.379-0.071-0.379-0.213
	c0-0.189,0.26-0.212,0.615-0.212c1.229,0,2.362,0.07,2.858,0.07c0.262,0,1.16-0.07,2.318-0.07c0.307,0,0.543,0.022,0.543,0.212
	c0,0.142-0.144,0.213-0.426,0.213c-0.236,0-0.427,0-0.709,0.07c-0.662,0.189-0.853,0.687-0.875,2.01l-0.261,14.918
	c0,0.521-0.094,0.733-0.307,0.733c-0.26,0-0.545-0.261-0.805-0.521c-1.488-1.419-4.517-4.516-6.976-6.95
	c-2.576-2.554-5.201-5.509-5.627-5.958h-0.07L301.822,341.092L301.822,341.092z"/>
<path fill="#003D7E" d="M325.961,333.29c0-3.594,0-4.256-0.049-5.012c-0.047-0.804-0.283-1.206-0.803-1.324
	c-0.261-0.071-0.568-0.095-0.853-0.095c-0.235,0-0.377-0.047-0.377-0.236c0-0.142,0.188-0.188,0.566-0.188
	c0.897,0,2.387,0.07,3.074,0.07c0.59,0,1.983-0.07,2.883-0.07c0.309,0,0.498,0.047,0.498,0.188c0,0.189-0.144,0.236-0.379,0.236
	c-0.236,0-0.427,0.023-0.709,0.071c-0.64,0.118-0.828,0.52-0.875,1.348c-0.05,0.756-0.05,1.418-0.05,5.012v4.161
	c0,2.293,0,4.161,0.097,5.177c0.069,0.639,0.235,1.064,0.944,1.159c0.332,0.047,0.853,0.094,1.207,0.094
	c0.261,0,0.377,0.071,0.377,0.189c0,0.166-0.188,0.236-0.448,0.236c-1.562,0-3.05-0.07-3.688-0.07c-0.545,0-2.033,0.07-2.979,0.07
	c-0.31,0-0.474-0.07-0.474-0.236c0-0.118,0.095-0.189,0.377-0.189c0.355,0,0.64-0.047,0.853-0.094
	c0.473-0.095,0.615-0.497,0.686-1.183c0.119-0.992,0.119-2.86,0.119-5.153v-4.161H325.961z"/>
<path fill="#003D7E" d="M337.545,328.751c-0.545-1.301-0.947-1.561-1.797-1.797c-0.354-0.095-0.734-0.095-0.922-0.095
	c-0.213,0-0.285-0.07-0.285-0.213c0-0.188,0.262-0.212,0.615-0.212c1.254,0,2.602,0.07,3.428,0.07c0.592,0,1.728-0.07,2.908-0.07
	c0.283,0,0.543,0.047,0.543,0.212c0,0.166-0.141,0.213-0.354,0.213c-0.379,0-0.731,0.023-0.922,0.166
	c-0.166,0.118-0.235,0.283-0.235,0.496c0,0.308,0.213,0.97,0.543,1.82l4.065,10.733h0.097c1.016-2.601,4.09-10.213,4.655-11.773
	c0.119-0.308,0.213-0.662,0.213-0.875c0-0.189-0.094-0.378-0.307-0.449c-0.285-0.095-0.639-0.118-0.947-0.118
	c-0.211,0-0.399-0.023-0.399-0.188c0-0.189,0.213-0.236,0.662-0.236c1.182,0,2.176,0.07,2.481,0.07c0.402,0,1.515-0.07,2.224-0.07
	c0.307,0,0.495,0.047,0.495,0.212c0,0.166-0.143,0.213-0.379,0.213c-0.235,0-0.731,0-1.157,0.284
	c-0.308,0.212-0.662,0.614-1.302,2.127c-0.922,2.223-1.561,3.5-2.836,6.407c-1.514,3.451-2.625,6.028-3.145,7.211
	c-0.615,1.371-0.756,1.749-1.088,1.749c-0.31,0-0.449-0.331-0.898-1.441L337.545,328.751L337.545,328.751z"/>
<path fill="#003D7E" d="M359.908,333.29c0-3.594,0-4.256-0.047-5.012c-0.047-0.804-0.236-1.182-1.019-1.348
	c-0.188-0.048-0.59-0.071-0.92-0.071c-0.262,0-0.401-0.047-0.401-0.213c0-0.165,0.164-0.212,0.52-0.212
	c0.639,0,1.324,0.023,1.914,0.023c0.615,0.023,1.158,0.047,1.49,0.047c0.758,0,5.461,0,5.91-0.023
	c0.448-0.047,0.827-0.095,1.018-0.142c0.117-0.024,0.26-0.095,0.377-0.095c0.119,0,0.144,0.095,0.144,0.213
	c0,0.165-0.119,0.449-0.189,1.536c-0.023,0.236-0.07,1.276-0.117,1.561c-0.022,0.117-0.072,0.261-0.235,0.261
	c-0.166,0-0.216-0.119-0.216-0.331c0-0.166-0.021-0.567-0.141-0.852c-0.166-0.426-0.402-0.71-1.584-0.852
	c-0.402-0.047-2.885-0.095-3.357-0.095c-0.118,0-0.166,0.071-0.166,0.236v5.982c0,0.165,0.025,0.26,0.166,0.26
	c0.521,0,3.24,0,3.783-0.048c0.566-0.047,0.922-0.118,1.135-0.354c0.164-0.189,0.261-0.308,0.38-0.308
	c0.094,0,0.163,0.048,0.163,0.189c0,0.141-0.094,0.521-0.188,1.726c-0.025,0.473-0.096,1.419-0.096,1.584
	c0,0.189,0,0.449-0.213,0.449c-0.164,0-0.214-0.095-0.214-0.213c-0.022-0.236-0.022-0.543-0.094-0.851
	c-0.119-0.473-0.449-0.827-1.324-0.923c-0.448-0.047-2.789-0.07-3.356-0.07c-0.117,0-0.144,0.095-0.144,0.236v1.868
	c0,0.804-0.022,2.979,0,3.664c0.048,1.632,0.427,1.985,2.839,1.985c0.614,0,1.606,0,2.223-0.283c0.615-0.284,0.897-0.78,1.063-1.749
	c0.048-0.261,0.095-0.355,0.261-0.355c0.188,0,0.188,0.189,0.188,0.426c0,0.544-0.188,2.151-0.307,2.625
	c-0.166,0.614-0.379,0.614-1.277,0.614c-1.772,0-3.072-0.048-4.09-0.071c-1.016-0.047-1.748-0.07-2.457-0.07
	c-0.262,0-0.781,0-1.348,0.023c-0.545,0-1.16,0.047-1.634,0.047c-0.307,0-0.473-0.07-0.473-0.236c0-0.118,0.096-0.189,0.379-0.189
	c0.354,0,0.64-0.047,0.853-0.094c0.473-0.095,0.59-0.615,0.686-1.301c0.117-0.993,0.117-2.86,0.117-5.035L359.908,333.29
	L359.908,333.29z"/>
<path fill="#003D7E" d="M380.713,335.158c0,0.26,0.047,0.354,0.213,0.426c0.496,0.165,1.205,0.236,1.797,0.236
	c0.945,0,1.253-0.096,1.679-0.402c0.709-0.521,1.395-1.607,1.395-3.547c0-3.356-2.223-4.326-3.617-4.326
	c-0.59,0-1.016,0.024-1.252,0.095c-0.166,0.047-0.213,0.142-0.213,0.331L380.713,335.158L380.713,335.158z M377.924,333.29
	c0-3.594,0-4.256-0.049-5.012c-0.047-0.804-0.236-1.182-1.016-1.348c-0.189-0.047-0.593-0.071-0.922-0.071
	c-0.261,0-0.402-0.047-0.402-0.212c0-0.166,0.166-0.213,0.52-0.213c1.255,0,2.742,0.07,3.24,0.07c0.803,0,2.601-0.07,3.332-0.07
	c1.49,0,3.074,0.141,4.353,1.016c0.659,0.45,1.606,1.655,1.606,3.239c0,1.749-0.731,3.357-3.121,5.296
	c2.104,2.647,3.736,4.752,5.129,6.218c1.324,1.371,2.295,1.537,2.648,1.607c0.26,0.047,0.473,0.071,0.662,0.071
	c0.188,0,0.283,0.07,0.283,0.188c0,0.189-0.164,0.236-0.449,0.236h-2.244c-1.324,0-1.916-0.118-2.529-0.449
	c-1.018-0.543-1.916-1.654-3.24-3.475c-0.944-1.301-2.032-2.908-2.34-3.263c-0.119-0.143-0.26-0.166-0.426-0.166l-2.057-0.047
	c-0.119,0-0.189,0.047-0.189,0.189v0.33c0,2.199,0,4.067,0.119,5.06c0.07,0.687,0.211,1.206,0.92,1.301
	c0.355,0.047,0.875,0.095,1.16,0.095c0.188,0,0.283,0.07,0.283,0.188c0,0.165-0.166,0.236-0.474,0.236
	c-1.371,0-3.121-0.071-3.477-0.071c-0.449,0-1.938,0.071-2.883,0.071c-0.31,0-0.474-0.071-0.474-0.236
	c0-0.118,0.095-0.188,0.378-0.188c0.354,0,0.639-0.048,0.852-0.095c0.473-0.095,0.592-0.614,0.686-1.301
	c0.119-0.992,0.119-2.86,0.119-5.036L377.924,333.29L377.924,333.29z"/>
<path fill="#003D7E" d="M397.189,344.023c-0.377-0.166-0.449-0.284-0.449-0.805c0-1.3,0.096-2.718,0.119-3.097
	c0.022-0.354,0.094-0.614,0.282-0.614c0.214,0,0.236,0.213,0.236,0.402c0,0.307,0.096,0.803,0.213,1.205
	c0.521,1.75,1.916,2.388,3.381,2.388c2.127,0,3.168-1.441,3.168-2.695c0-1.158-0.354-2.246-2.315-3.782l-1.088-0.851
	c-2.601-2.034-3.498-3.688-3.498-5.604c0-2.601,2.174-4.469,5.461-4.469c1.535,0,2.529,0.236,3.145,0.402
	c0.213,0.048,0.33,0.118,0.33,0.284c0,0.308-0.094,0.992-0.094,2.837c0,0.52-0.072,0.709-0.26,0.709
	c-0.166,0-0.238-0.143-0.238-0.426c0-0.213-0.117-0.945-0.613-1.561c-0.354-0.448-1.041-1.158-2.578-1.158
	c-1.747,0-2.813,1.017-2.813,2.436c0,1.087,0.543,1.914,2.506,3.404l0.662,0.496c2.861,2.152,3.877,3.782,3.877,6.028
	c0,1.372-0.52,3.003-2.223,4.113c-1.183,0.758-2.506,0.97-3.759,0.97C399.271,344.638,398.207,344.472,397.189,344.023
	L397.189,344.023z"/>
<path fill="#003D7E" d="M415.322,333.29c0-3.594,0-4.256-0.047-5.012c-0.047-0.804-0.283-1.206-0.806-1.324
	c-0.26-0.071-0.565-0.095-0.85-0.095c-0.236,0-0.379-0.047-0.379-0.236c0-0.142,0.188-0.188,0.568-0.188
	c0.896,0,2.387,0.07,3.071,0.07c0.592,0,1.986-0.07,2.886-0.07c0.307,0,0.495,0.047,0.495,0.188c0,0.189-0.143,0.236-0.379,0.236
	c-0.235,0-0.426,0.023-0.709,0.071c-0.639,0.118-0.828,0.52-0.875,1.348c-0.047,0.756-0.047,1.418-0.047,5.012v4.161
	c0,2.293,0,4.161,0.094,5.177c0.072,0.639,0.236,1.064,0.947,1.159c0.33,0.047,0.853,0.094,1.205,0.094
	c0.26,0,0.379,0.071,0.379,0.189c0,0.166-0.188,0.236-0.449,0.236c-1.561,0-3.051-0.07-3.688-0.07c-0.545,0-2.035,0.07-2.98,0.07
	c-0.307,0-0.473-0.07-0.473-0.236c0-0.118,0.096-0.189,0.379-0.189c0.354,0,0.639-0.047,0.853-0.094
	c0.473-0.095,0.612-0.497,0.686-1.183c0.117-0.992,0.117-2.86,0.117-5.153L415.322,333.29L415.322,333.29z"/>
<path fill="#003D7E" d="M432.227,327.758l-3.523,0.095c-1.371,0.047-1.938,0.166-2.293,0.686c-0.236,0.354-0.354,0.639-0.402,0.827
	c-0.047,0.189-0.117,0.284-0.26,0.284c-0.164,0-0.213-0.118-0.213-0.379c0-0.378,0.449-2.528,0.496-2.719
	c0.072-0.307,0.143-0.448,0.285-0.448c0.188,0,0.426,0.236,1.016,0.283c0.687,0.07,1.584,0.118,2.363,0.118h9.362
	c0.757,0,1.277-0.07,1.632-0.118c0.354-0.071,0.543-0.118,0.639-0.118c0.166,0,0.188,0.142,0.188,0.496
	c0,0.496-0.071,2.128-0.071,2.742c-0.023,0.236-0.07,0.379-0.213,0.379c-0.188,0-0.236-0.118-0.261-0.473l-0.022-0.26
	c-0.047-0.615-0.687-1.277-2.789-1.324l-2.979-0.071v9.693c0,2.175,0,4.043,0.117,5.06c0.072,0.661,0.213,1.182,0.922,1.275
	c0.332,0.048,0.853,0.095,1.205,0.095c0.263,0,0.379,0.071,0.379,0.188c0,0.166-0.188,0.236-0.448,0.236
	c-1.562,0-3.05-0.07-3.712-0.07c-0.543,0-2.032,0.07-2.979,0.07c-0.309,0-0.473-0.07-0.473-0.236c0-0.118,0.094-0.188,0.377-0.188
	c0.354,0,0.639-0.047,0.852-0.095c0.473-0.094,0.615-0.614,0.687-1.3c0.118-0.992,0.118-2.86,0.118-5.035L432.227,327.758
	L432.227,327.758z"/>
<path fill="#003D7E" d="M451.707,338.184c0-1.276-0.238-1.797-0.545-2.482c-0.166-0.378-3.334-5.579-4.16-6.809
	c-0.592-0.875-1.184-1.466-1.633-1.726c-0.307-0.166-0.709-0.308-0.992-0.308c-0.188,0-0.354-0.047-0.354-0.213
	c0-0.142,0.164-0.212,0.446-0.212c0.427,0,2.199,0.07,2.98,0.07c0.496,0,1.465-0.07,2.529-0.07c0.235,0,0.354,0.07,0.354,0.212
	c0,0.143-0.164,0.166-0.52,0.261c-0.213,0.047-0.33,0.236-0.33,0.426c0,0.188,0.117,0.473,0.283,0.804
	c0.329,0.709,3.641,6.406,4.018,7.068c0.238-0.567,3.217-5.769,3.547-6.501c0.236-0.521,0.332-0.923,0.332-1.229
	c0-0.237-0.096-0.497-0.498-0.591c-0.213-0.048-0.424-0.095-0.424-0.237c0-0.165,0.117-0.212,0.4-0.212
	c0.78,0,1.536,0.07,2.223,0.07c0.52,0,2.082-0.07,2.529-0.07c0.262,0,0.426,0.047,0.426,0.188c0,0.166-0.189,0.236-0.449,0.236
	c-0.236,0-0.686,0.095-1.039,0.284c-0.498,0.236-0.758,0.52-1.277,1.158c-0.778,0.945-4.09,6.501-4.516,7.519
	c-0.354,0.851-0.354,1.583-0.354,2.363v1.939c0,0.378,0,1.371,0.069,2.363c0.047,0.687,0.26,1.206,0.969,1.301
	c0.33,0.047,0.853,0.095,1.183,0.095c0.26,0,0.379,0.07,0.379,0.188c0,0.165-0.189,0.236-0.496,0.236
	c-1.49,0-2.979-0.071-3.617-0.071c-0.592,0-2.08,0.071-2.955,0.071c-0.33,0-0.521-0.047-0.521-0.236
	c0-0.118,0.119-0.188,0.379-0.188c0.332,0,0.615-0.048,0.828-0.095c0.473-0.095,0.686-0.614,0.731-1.301
	c0.072-0.992,0.072-1.985,0.072-2.363L451.707,338.184L451.707,338.184z"/>
</svg>
